<svg xmlns="http://www.w3.org/2000/svg" width="32" height="32" viewBox="0 0 32 32" fill="none">
<path d="M16 32C24.8366 32 32 24.8366 32 16C32 7.16344 24.8366 0 16 0C7.16344 0 0 7.16344 0 16C0 24.8366 7.16344 32 16 32Z" fill="white"/>
<path d="M5.80204 16.0497C5.75415 17.6818 6.04151 19.3138 6.56956 20.8973C7.04972 22.2418 7.96215 23.3933 9.16316 24.2087C10.5557 25.0726 12.1534 25.4088 13.8198 25.4088H24.0469V20.5952H13.8039C11.3024 20.5952 10.1001 18.8952 10.1001 16.0595V16.0619C10.1001 13.2261 11.3024 11.5322 13.8039 11.5322H24.0469V6.71985H13.8198C12.2038 6.71985 10.5557 7.05596 9.16316 7.91991C7.96215 8.73532 7.05095 9.88684 6.56956 11.2313C6.04151 12.8148 5.75415 14.4468 5.80204 16.0789" fill="url(#paint0_linear_2692_4566)"/>
<path fill-rule="evenodd" clip-rule="evenodd" d="M12.0137 15.0646L16.8153 15.9819C16.8153 15.9819 13.2933 19.6403 12.0137 15.0646Z" fill="#414141"/>
<path fill-rule="evenodd" clip-rule="evenodd" d="M23.2734 15.0815L18.6191 16.0474C18.6191 16.0474 22.6508 19.667 23.2734 15.0815Z" fill="#414141"/>
<defs>
<linearGradient id="paint0_linear_2692_4566" x1="5.79713" y1="16.0643" x2="24.0469" y2="16.0643" gradientUnits="userSpaceOnUse">
<stop stop-color="#F16222"/>
<stop offset="0.26" stop-color="#F37421"/>
<stop offset="0.71" stop-color="#F68D1E"/>
<stop offset="1" stop-color="#F7981D"/>
</linearGradient>
</defs>
</svg>